<?xml version="1.0" standalone="no"?>
<!DOCTYPE svg PUBLIC "-//W3C//DTD SVG 20010904//EN"
 "http://www.w3.org/TR/2001/REC-SVG-20010904/DTD/svg10.dtd">
<svg version="1.0" xmlns="http://www.w3.org/2000/svg"
 width="787.000000pt" height="787.000000pt" viewBox="0 0 787.000000 787.000000"
 preserveAspectRatio="xMidYMid meet">
<metadata>
Created by potrace 1.11, written by Peter Selinger 2001-2013
</metadata>
<g transform="translate(0.000000,787.000000) scale(0.100000,-0.100000)"
fill="#000000" stroke="none">
<path d="M4135 7171 c-91 -24 -183 -95 -230 -176 -40 -67 -60 -210 -75 -515
-6 -113 -19 -277 -30 -365 -42 -344 -43 -408 -16 -635 32 -257 50 -490 39
-500 -8 -7 -93 -30 -112 -30 -26 0 -188 370 -269 615 -77 230 -141 485 -172
689 -51 326 -90 452 -166 536 -144 159 -398 101 -498 -114 -42 -91 -50 -146
-42 -315 8 -192 60 -671 87 -806 29 -144 99 -341 249 -700 82 -195 88 -217
152 -516 21 -101 21 -111 9 -244 -18 -188 -31 -239 -72 -282 -45 -46 -127 -93
-164 -93 -26 0 -34 7 -59 53 -55 99 -144 222 -220 306 -49 53 -79 96 -85 120
-5 20 -24 92 -41 161 -39 155 -101 288 -170 363 -66 72 -340 283 -410 315
-106 49 -322 40 -416 -19 -43 -26 -59 -95 -58 -239 1 -132 31 -228 138 -448
l75 -153 -1 -137 c-2 -165 10 -217 83 -340 78 -132 170 -320 269 -553 101
-237 141 -315 200 -393 54 -72 99 -105 242 -182 284 -153 457 -260 727 -448
215 -150 257 -186 271 -234 30 -102 22 -605 -16 -967 -28 -278 -109 -841 -130
-907 -5 -16 4 -18 98 -18 l104 0 18 108 c119 725 168 1344 136 1711 -18 197
-56 252 -295 421 -279 198 -473 320 -750 472 -107 59 -197 116 -223 141 -50
49 -105 152 -200 377 -98 231 -167 375 -250 522 -85 148 -93 182 -86 345 l6
118 -80 165 c-113 233 -134 296 -136 400 l-1 85 77 3 c51 2 88 -2 112 -12 47
-20 319 -229 357 -275 48 -58 84 -147 123 -302 20 -80 36 -151 36 -158 0 -20
65 -110 138 -190 71 -78 144 -183 209 -299 48 -86 88 -107 203 -107 77 0 92 3
154 34 85 42 202 149 227 209 38 89 80 408 67 506 -4 32 -22 118 -39 190 -17
72 -34 154 -39 181 -4 28 -53 158 -108 290 -110 265 -203 518 -226 610 -29
119 -83 598 -93 820 -7 164 6 221 62 281 30 31 38 35 76 32 36 -3 47 -8 66
-37 37 -55 61 -148 99 -390 52 -326 151 -678 283 -1010 65 -162 163 -374 204
-438 25 -40 28 -42 93 -48 123 -14 311 40 350 101 39 58 35 237 -12 632 -27
234 -27 256 16 617 10 94 24 268 30 388 12 241 31 379 58 416 30 41 67 63 113
68 38 4 48 1 72 -22 15 -15 27 -33 28 -39 0 -6 4 -33 8 -61 5 -31 3 -127 -6
-250 -17 -222 -18 -916 -3 -1230 10 -201 40 -380 68 -402 29 -22 120 -53 175
-59 56 -7 154 9 180 29 17 13 96 382 117 552 7 50 25 173 40 275 42 273 57
398 80 674 13 155 27 260 35 276 28 54 134 66 179 20 20 -19 21 -31 20 -168
-1 -91 -10 -208 -23 -307 -15 -106 -25 -252 -31 -430 -12 -346 -13 -361 -65
-605 -50 -239 -64 -321 -67 -408 l-3 -63 100 -34 c112 -38 155 -42 240 -20 73
19 107 50 214 195 130 176 147 207 240 435 69 170 90 235 95 287 8 87 45 231
86 336 41 107 99 172 152 172 80 0 96 -85 54 -295 -14 -72 -35 -179 -47 -240
-49 -258 -148 -500 -386 -947 l-164 -307 3 -493 c2 -557 -2 -618 -63 -943 -83
-434 -132 -635 -199 -800 -10 -26 8 -178 124 -1056 75 -564 136 -1031 136
-1038 0 -7 32 -11 100 -11 97 0 100 1 100 23 -1 12 -60 472 -133 1022 l-133
999 28 79 c46 130 94 336 173 747 61 313 67 406 66 944 l-1 478 140 264 c267
500 355 721 415 1049 14 77 35 184 46 238 52 243 -8 418 -162 472 -115 41
-253 0 -330 -98 -90 -114 -167 -323 -199 -542 -9 -57 -34 -135 -88 -270 -80
-202 -89 -218 -219 -392 -71 -96 -89 -113 -117 -119 -67 -12 -68 -7 -30 176
19 91 44 208 54 260 15 70 23 166 30 365 11 319 14 361 42 565 14 104 21 211
22 325 1 154 -1 174 -21 215 -98 208 -420 228 -543 34 -39 -63 -47 -104 -70
-389 -11 -137 -29 -313 -40 -390 -85 -611 -143 -945 -165 -945 -22 0 -33 23
-45 95 -16 95 -31 1052 -19 1220 5 72 13 182 17 245 19 267 -26 402 -159 474
-56 31 -154 43 -214 27z"/>
</g>
</svg>
