<?xml version="1.0" standalone="no"?>
<!DOCTYPE svg PUBLIC "-//W3C//DTD SVG 20010904//EN"
 "http://www.w3.org/TR/2001/REC-SVG-20010904/DTD/svg10.dtd">
<svg version="1.0" xmlns="http://www.w3.org/2000/svg"
 width="700.000000pt" height="700.000000pt" viewBox="0 0 700.000000 700.000000"
 preserveAspectRatio="xMidYMid meet">
<metadata>
Created by potrace 1.11, written by Peter Selinger 2001-2013
</metadata>
<g transform="translate(0.000000,700.000000) scale(0.100000,-0.100000)"
fill="#000000" stroke="none">
<path d="M0 3500 l0 -3500 3500 0 3500 0 0 3500 0 3500 -3500 0 -3500 0 0
-3500z m3320 2048 c0 -7 14 -81 31 -165 37 -178 12 -159 225 -169 l141 -6 33
-158 c18 -86 35 -162 39 -168 4 -6 72 -14 164 -18 186 -8 163 13 202 -186 15
-75 31 -141 34 -147 5 -7 68 -15 171 -21 135 -8 167 -12 184 -28 12 -10 56
-49 98 -86 l78 -68 87 23 c123 33 348 33 473 0 562 -147 888 -732 724 -1300
-114 -393 -461 -684 -860 -719 -171 -16 -326 9 -488 79 l-89 38 8 -313 7 -313
-23 -6 c-59 -14 -601 -118 -604 -115 -1 2 -19 76 -40 166 l-39 162 -137 0
c-213 0 -191 -16 -237 174 l-39 161 -166 3 -166 2 -10 38 c-6 20 -24 97 -41
170 l-32 132 -156 0 c-116 0 -164 4 -184 14 -15 8 -65 46 -112 85 l-84 71 -93
-26 c-124 -33 -307 -43 -429 -21 -501 88 -860 544 -837 1062 17 375 226 708
546 870 240 121 528 137 785 44 174 -63 374 -221 482 -382 133 -198 196 -438
176 -672 -7 -71 -6 -103 2 -111 16 -17 1068 -878 1084 -888 7 -4 -1 15 -18 42
-125 204 -184 475 -151 700 l12 82 -37 32 c-38 33 -450 396 -1037 911 l-317
279 0 324 c0 266 2 326 14 330 17 7 573 102 604 103 12 1 22 -5 22 -11z"/>
<path d="M1871 4495 c-87 -25 -151 -65 -231 -145 -118 -118 -177 -260 -168
-405 8 -129 70 -224 176 -273 47 -21 65 -24 137 -20 72 4 95 10 161 43 239
118 377 430 282 637 -34 74 -70 113 -133 143 -67 33 -150 40 -224 20z"/>
<path d="M5357 3529 c-174 -28 -362 -213 -413 -404 -20 -71 -18 -190 3 -249
23 -63 90 -138 150 -166 40 -19 60 -21 143 -18 85 3 103 7 164 37 282 139 411
520 239 711 -23 26 -62 57 -85 67 -52 24 -135 33 -201 22z"/>
</g>
</svg>
